<svg width="188" height="46" viewBox="0 0 188 46" fill="none" xmlns="http://www.w3.org/2000/svg">
<path d="M59.6744 0H63.6701V34.4637C63.6748 34.9679 63.5823 35.4679 63.398 35.9339C63.2137 36.3999 62.9415 36.8222 62.5975 37.1757C62.2691 37.5424 61.8713 37.8337 61.4295 38.031C60.9876 38.2284 60.5113 38.3275 60.0308 38.3221H56.3881V36.1296C54.1746 37.5263 51.6402 38.2691 49.0548 38.2791C47.132 38.3086 45.2238 37.9258 43.448 37.1543C41.6722 36.3829 40.0664 35.2392 38.7298 33.7938C37.3681 32.3756 36.288 30.69 35.5517 28.8338C34.8154 26.9777 34.4374 24.9876 34.4395 22.9782C34.4404 20.973 34.8192 18.9875 35.5542 17.1354C36.2893 15.2832 37.3662 13.6007 38.7234 12.1837C40.0807 10.7668 41.6917 9.64333 43.4644 8.87748C45.237 8.11163 47.1367 7.71842 49.0548 7.7203C51.6326 7.72506 54.1631 8.44453 56.3881 9.80532V3.43921C56.3881 2.52769 56.7343 1.65346 57.3505 1.00859C57.9667 0.363712 58.8025 0.000949493 59.6744 0ZM56.3881 23.2075V22.7382C56.3638 21.4194 56.0017 20.1315 55.3395 19.0088C54.69 17.8952 53.781 16.972 52.6975 16.3255C51.5804 15.6707 50.3203 15.3289 49.0396 15.3333C47.7589 15.3377 46.5011 15.6881 45.3881 16.3506C44.2812 17.0223 43.3611 17.9842 42.7186 19.1413C41.9034 20.5997 41.5739 22.2996 41.7816 23.9747C41.9893 25.6499 42.7226 27.2057 43.8666 28.3985C45.2232 29.8362 47.0705 30.6518 49.0022 30.6659C50.9339 30.68 52.7919 29.8915 54.1676 28.4738C54.8512 27.7921 55.3993 26.976 55.7804 26.0722C56.1615 25.1685 56.368 24.1949 56.3881 23.2075Z" fill="#FCF0E3"/>
<path d="M71.0403 12.2063C73.7851 9.33908 77.5051 7.72609 81.3853 7.72072C85.2655 7.71534 88.9896 9.31804 91.7417 12.1777C93.1301 13.5723 94.2296 15.2505 94.9718 17.108C95.714 18.9654 96.083 20.9625 96.056 22.9754C96.0855 24.9894 95.72 26.9885 94.9821 28.8492C94.2442 30.71 93.1496 32.393 91.7656 33.7945C90.4067 35.2162 88.7932 36.3441 87.0172 37.1136C85.2411 37.8831 83.3375 38.2791 81.415 38.2791C79.4925 38.2791 77.5888 37.8831 75.8128 37.1136C74.0368 36.3441 72.4232 35.2162 71.0643 33.7945C69.6798 32.3935 68.5847 30.7106 67.8467 28.8497C67.1088 26.9889 66.7437 24.9896 66.774 22.9754C66.7378 20.97 67.098 18.9784 67.8322 17.1254C68.5663 15.2723 69.6585 13.5977 71.0403 12.2063ZM76.2251 28.4243C76.902 29.1369 77.7075 29.702 78.5948 30.0869C79.4821 30.4718 80.4336 30.6687 81.3943 30.6664C82.3549 30.6641 83.3056 30.4625 84.1912 30.0733C85.0768 29.6842 85.8797 29.1152 86.5535 28.3993C87.2438 27.6942 87.7899 26.8499 88.1587 25.9175C88.5274 24.9852 88.7111 23.9842 88.6987 22.9754C88.6573 20.9778 87.8692 19.0767 86.5032 17.6793C85.1373 16.2819 83.3021 15.4993 81.391 15.4993C79.4798 15.4993 77.6447 16.2819 76.2787 17.6793C74.9128 19.0767 74.1247 20.9778 74.0833 22.9754C74.0731 23.9886 74.2588 24.9935 74.6291 25.9298C74.9995 26.8662 75.547 27.7146 76.2388 28.4243H76.2251Z" fill="#FCF0E3"/>
<path d="M128.319 19.8716C128.787 22.1738 128.727 24.559 128.144 26.8324C127.615 29.0011 126.636 31.0215 125.276 32.7507C123.916 34.4451 122.224 35.8146 120.314 36.7667C118.171 37.857 115.802 38.3706 113.421 38.2612C111.039 38.1517 108.722 37.4225 106.679 36.1398V42.1369C106.684 42.6412 106.592 43.1415 106.408 43.6076C106.224 44.0737 105.951 44.4959 105.606 44.8489C105.271 45.2205 104.864 45.5148 104.413 45.7128C103.963 45.9108 103.477 46.0082 102.988 45.9988H99.3867V7.66602H106.679V9.81552C108.433 8.69482 110.402 7.9924 112.446 7.75833C114.489 7.52426 116.557 7.76429 118.501 8.46133C120.971 9.27734 123.185 10.772 124.913 12.789C126.656 14.7731 127.835 17.2257 128.319 19.8716ZM108.814 28.4231C109.843 29.4909 111.152 30.2163 112.576 30.5079C113.999 30.7994 115.473 30.6441 116.812 30.0614C118.151 29.4787 119.295 28.4948 120.1 27.2336C120.905 25.9724 121.335 24.4903 121.335 22.9741C121.335 20.9408 120.563 18.9907 119.187 17.553C117.812 16.1152 115.947 15.3075 114.002 15.3075C112.057 15.3075 110.192 16.1152 108.817 17.553C107.441 18.9907 106.669 20.9408 106.669 22.9741C106.657 23.9865 106.841 24.991 107.21 25.9273C107.578 26.8636 108.124 27.7125 108.814 28.4231Z" fill="#FCF0E3"/>
<path d="M180.099 27.0153H187.333C187.349 29.0358 186.85 31.0242 185.887 32.776C184.941 34.5123 183.561 35.9465 181.894 36.9245C180.226 37.9237 178.335 38.4452 176.412 38.4364C175.172 38.4412 173.941 38.2293 172.769 37.8094C170.633 37.0238 168.784 35.5624 167.478 33.6281C166.173 31.6939 165.475 29.3826 165.483 27.0153V0.146529H169.075C169.724 0.143207 170.363 0.32396 170.922 0.669575C171.479 1.01063 171.942 1.49541 172.269 2.0775C172.598 2.66362 172.77 3.33213 172.765 4.01205V7.92773H187.333V15.4761H172.765V27.7963C172.95 28.7366 173.461 29.5718 174.201 30.14C174.941 30.7082 175.856 30.969 176.77 30.8717C177.683 30.7745 178.529 30.3261 179.144 29.6136C179.76 28.901 180.1 27.9751 180.099 27.0153Z" fill="#FCF0E3"/>
<path d="M22.6166 7.66699V9.8165C20.3917 8.45523 17.8611 7.73572 15.2832 7.73148C13.3635 7.69986 11.4578 8.07781 9.68255 8.84222C7.90729 9.60664 6.29978 10.7415 4.95825 12.1774C3.57295 13.5733 2.47718 15.2522 1.73909 17.1098C1.001 18.9674 0.636377 20.9638 0.667898 22.975C0.637631 24.9892 1.00274 26.9885 1.74067 28.8494C2.47861 30.7103 3.57368 32.3932 4.95825 33.7942C6.2946 35.24 7.9003 36.3839 9.67616 37.1554C11.452 37.9268 13.3603 38.3094 15.2832 38.2795C17.9824 38.2785 20.6268 37.484 22.9147 35.9867C23.2176 36.6481 23.6821 37.2141 24.2614 37.6275C24.846 38.0573 25.5446 38.2853 26.2593 38.2795H29.9191V7.66699H22.6166ZM17.9013 18.4396C18.0795 17.1463 19.0664 16.2901 20.1047 16.5624C21.143 16.8346 21.8387 18.067 21.6605 19.3567C21.4823 20.6464 20.4954 21.5062 19.4571 21.2339C18.4187 20.9617 17.7231 19.7293 17.9013 18.4396ZM13.6829 14.0797C14.615 13.4205 15.8898 13.8576 16.5306 15.0541C17.1714 16.2507 16.9384 17.7625 16.0063 18.4217C15.0742 19.0809 13.8028 18.6474 13.162 17.4472C12.5212 16.2471 12.7542 14.7604 13.6829 14.0797ZM8.91621 16.2292C9.8483 15.57 11.1231 16.0035 11.7639 17.2036C12.4047 18.4038 12.1717 19.912 11.2396 20.5712C10.3075 21.2304 9.03615 20.7969 8.39534 19.5967C7.75453 18.3966 7.98755 16.9099 8.91621 16.2435V16.2292ZM10.1944 25.4255C9.66325 26.3928 8.40219 26.5719 7.37758 25.8267C6.35296 25.0816 5.95545 23.6772 6.48661 22.7278C7.01776 21.7785 8.27883 21.5814 9.30344 22.3266C10.3281 23.0718 10.729 24.4725 10.1944 25.4398V25.4255ZM21.6331 27.9332C20.3446 28.965 18.453 27.7756 16.8904 28.4706C15.3072 29.1047 14.7315 31.3366 13.1209 31.5265C11.5103 31.7164 10.2767 29.8857 11.7502 26.554C12.7097 24.3113 12.4424 22.3911 14.214 21.5886C16.02 20.8721 17.1063 22.4592 19.3303 23.3799C22.596 24.7054 22.9216 26.9194 21.6331 27.9476V27.9332Z" fill="#FCF0E3"/>
<path d="M153.113 27.2444C152.369 28.5756 151.243 29.6284 149.895 30.2537C148.551 30.8995 147.049 31.0935 145.595 30.809C144.175 30.5512 142.857 29.8679 141.801 28.8422L161.015 19.8465L160.789 18.8076C160.764 18.6145 160.719 18.4248 160.655 18.2415C160.54 17.8045 160.393 17.377 160.217 16.9626C159.625 15.5518 158.815 14.2529 157.818 13.1186C155.81 10.6452 153.07 8.94217 150.032 8.27859C146.972 7.54734 143.766 7.89369 140.914 9.26378C139.009 10.1461 137.308 11.4449 135.924 13.0727C134.54 14.7004 133.506 16.6193 132.892 18.7001C132.295 20.751 132.113 22.9092 132.357 25.0376C132.646 27.5657 133.547 29.9749 134.975 32.0378C136.285 33.9899 138.017 35.5921 140.03 36.7146C142.042 37.837 144.28 38.4483 146.56 38.4989C148.841 38.5495 151.101 38.0379 153.157 37.0057C155.214 35.9735 157.009 34.4495 158.397 32.5572C159.55 30.9712 160.398 29.1671 160.895 27.2444H153.113ZM141.078 18.3419C141.8 17.373 142.743 16.6083 143.82 16.1171C144.892 15.6048 146.069 15.376 147.246 15.4508C148.404 15.526 149.53 15.8712 150.543 16.461L139.618 21.5661C139.87 20.3915 140.369 19.2902 141.078 18.3419Z" fill="#FCF0E3"/>
</svg>
