<svg width="144" height="35" viewBox="0 0 144 35" fill="none" xmlns="http://www.w3.org/2000/svg">
<path d="M45.7891 0H48.8402V25.7437C48.8438 26.1203 48.7732 26.4938 48.6324 26.8419C48.4917 27.1899 48.2838 27.5054 48.0211 27.7694C47.7704 28.0434 47.4667 28.261 47.1292 28.4084C46.7918 28.5558 46.4281 28.6298 46.0612 28.6258H43.2796V26.988C41.5894 28.0313 39.6541 28.5862 37.6799 28.5937C36.2116 28.6157 34.7545 28.3297 33.3985 27.7535C32.0425 27.1773 30.8163 26.3229 29.7957 25.2432C28.7559 24.1839 27.9311 22.9248 27.3689 21.5382C26.8066 20.1517 26.518 18.6652 26.5195 17.1642C26.5202 15.6664 26.8095 14.1833 27.3708 12.7998C27.9321 11.4163 28.7544 10.1594 29.7908 9.10099C30.8272 8.04258 32.0574 7.20337 33.411 6.63129C34.7646 6.05922 36.2152 5.76549 37.6799 5.7669C39.6483 5.77046 41.5806 6.30788 43.2796 7.32437V2.56901C43.2796 1.88813 43.5439 1.2351 44.0145 0.753392C44.485 0.271685 45.1233 0.000709252 45.7891 0ZM43.2796 17.3355V16.9849C43.2611 15.9998 42.9846 15.0378 42.4789 14.1992C41.983 13.3673 41.2888 12.6777 40.4614 12.1948C39.6084 11.7057 38.6462 11.4503 37.6683 11.4536C36.6903 11.4569 35.7298 11.7187 34.88 12.2135C34.0348 12.7153 33.3322 13.4338 32.8415 14.2982C32.219 15.3876 31.9674 16.6573 32.126 17.9086C32.2846 19.1599 32.8446 20.3221 33.7181 21.2131C34.7541 22.287 36.1646 22.8962 37.6397 22.9068C39.1148 22.9173 40.5335 22.3283 41.584 21.2693C42.1061 20.7601 42.5246 20.1505 42.8156 19.4754C43.1066 18.8003 43.2643 18.0731 43.2796 17.3355Z" fill="#3772FF"/>
<path d="M54.4687 9.11728C56.5646 6.9755 59.4052 5.77062 62.3682 5.76661C65.3311 5.7626 68.1748 6.95977 70.2763 9.09587C71.3366 10.1377 72.1761 11.3912 72.7429 12.7787C73.3096 14.1662 73.5914 15.658 73.5708 17.1615C73.5933 18.666 73.3142 20.1592 72.7507 21.5492C72.1873 22.9391 71.3514 24.1963 70.2946 25.2432C69.257 26.3052 68.0249 27.1477 66.6687 27.7225C65.3125 28.2973 63.8589 28.5931 62.3908 28.5931C60.9228 28.5931 59.4692 28.2973 58.113 27.7225C56.7568 27.1477 55.5247 26.3052 54.487 25.2432C53.4298 24.1967 52.5935 22.9396 52.0301 21.5495C51.4666 20.1595 51.1878 18.6661 51.2109 17.1615C51.1833 15.6636 51.4583 14.1759 52.0189 12.7917C52.5795 11.4075 53.4135 10.1566 54.4687 9.11728ZM58.4278 21.2318C58.9447 21.7641 59.5597 22.1862 60.2373 22.4737C60.9149 22.7612 61.6415 22.9083 62.375 22.9066C63.1086 22.9048 63.8345 22.7542 64.5108 22.4635C65.187 22.1728 65.8001 21.7478 66.3146 21.2131C66.8417 20.6864 67.2588 20.0557 67.5403 19.3592C67.8219 18.6628 67.9622 17.9151 67.9527 17.1615C67.9211 15.6694 67.3193 14.2493 66.2762 13.2054C65.2332 12.1616 63.8319 11.5771 62.3725 11.5771C60.9131 11.5771 59.5118 12.1616 58.4688 13.2054C57.4257 14.2493 56.8239 15.6694 56.7923 17.1615C56.7845 17.9183 56.9263 18.669 57.2091 19.3684C57.492 20.0679 57.91 20.7017 58.4383 21.2318H58.4278Z" fill="#3772FF"/>
<path d="M98.2072 14.8439C98.5643 16.5636 98.5185 18.3453 98.0738 20.0435C97.6693 21.6634 96.9216 23.1726 95.8836 24.4643C94.845 25.73 93.5529 26.753 92.0946 27.4642C90.4581 28.2786 88.6487 28.6623 86.8305 28.5805C85.0124 28.4987 83.2429 27.954 81.6826 26.9959V31.4756C81.6869 31.8523 81.6165 32.226 81.4757 32.5741C81.335 32.9223 81.1267 33.2377 80.8636 33.5014C80.6072 33.779 80.2969 33.9988 79.9527 34.1467C79.6084 34.2946 79.2378 34.3674 78.8644 34.3604H76.1143V5.72656H81.6826V7.3322C83.0221 6.49506 84.5256 5.97036 86.086 5.79552C87.6465 5.62067 89.2254 5.79997 90.7103 6.32065C92.596 6.93019 94.2869 8.04666 95.6062 9.55332C96.9371 11.0354 97.8378 12.8675 98.2072 14.8439ZM83.3129 21.2316C84.0991 22.0293 85.0985 22.5712 86.1853 22.7889C87.2721 23.0067 88.3977 22.8907 89.4201 22.4554C90.4425 22.0202 91.3161 21.2852 91.9308 20.3431C92.5455 19.401 92.8738 18.2939 92.8744 17.1614C92.8744 15.6425 92.2844 14.1859 91.2342 13.1119C90.1841 12.0379 88.7597 11.4346 87.2746 11.4346C85.7894 11.4346 84.3651 12.0379 83.3149 13.1119C82.2648 14.1859 81.6748 15.6425 81.6748 17.1614C81.666 17.9176 81.8065 18.6679 82.088 19.3673C82.3694 20.0667 82.7861 20.7008 83.3129 21.2316Z" fill="#3772FF"/>
<path d="M137.746 20.1798H143.27C143.282 21.6891 142.901 23.1744 142.166 24.4829C141.444 25.7799 140.39 26.8512 139.117 27.5818C137.843 28.3282 136.399 28.7177 134.931 28.7111C133.984 28.7147 133.044 28.5564 132.149 28.2428C130.518 27.6559 129.106 26.5643 128.109 25.1195C127.112 23.6746 126.58 21.9482 126.586 20.1798V0.109409H129.328C129.824 0.106927 130.312 0.241946 130.739 0.500113C131.164 0.754874 131.518 1.117 131.767 1.5518C132.019 1.98962 132.15 2.48898 132.147 2.99687V5.9218H143.27V11.5603H132.147V20.7632C132.287 21.4656 132.678 22.0894 133.243 22.5139C133.808 22.9384 134.507 23.1331 135.204 23.0605C135.902 22.9878 136.548 22.6529 137.018 22.1207C137.487 21.5884 137.747 20.8968 137.746 20.1798Z" fill="#3772FF"/>
<path d="M17.492 5.72656V7.3322C15.7931 6.31536 13.8607 5.7779 11.8922 5.77473C10.4263 5.75111 8.97113 6.03343 7.61553 6.60444C6.25994 7.17544 5.03244 8.02314 4.00804 9.09572C2.95022 10.1384 2.11348 11.3926 1.54987 12.7801C0.986265 14.1677 0.707837 15.659 0.731906 17.1614C0.708794 18.6659 0.987594 20.1593 1.55108 21.5494C2.11457 22.9394 2.95078 24.1965 4.00804 25.243C5.02848 26.323 6.2546 27.1775 7.61066 27.7537C8.96672 28.33 10.4239 28.6158 11.8922 28.5935C13.9533 28.5927 15.9727 27.9992 17.7197 26.8808C17.9509 27.3748 18.3057 27.7976 18.748 28.1064C19.1944 28.4275 19.7278 28.5978 20.2736 28.5935H23.0682V5.72656H17.492ZM13.8914 13.7735C14.0275 12.8074 14.7811 12.1678 15.574 12.3712C16.3668 12.5746 16.898 13.4952 16.7619 14.4585C16.6259 15.4219 15.8723 16.0642 15.0794 15.8608C14.2865 15.6574 13.7553 14.7368 13.8914 13.7735ZM10.6702 10.5167C11.382 10.0243 12.3554 10.3508 12.8447 11.2446C13.334 12.1384 13.1561 13.2677 12.4444 13.7601C11.7326 14.2525 10.7618 13.9287 10.2725 13.0322C9.78315 12.1357 9.96109 11.0252 10.6702 10.5167ZM7.03036 12.1223C7.74211 11.6299 8.71553 11.9537 9.20485 12.8502C9.69418 13.7467 9.51624 14.8733 8.80449 15.3657C8.09275 15.8581 7.12194 15.5343 6.63261 14.6378C6.14329 13.7414 6.32122 12.6308 7.03036 12.133V12.1223ZM8.00639 18.9918C7.6008 19.7143 6.63785 19.8481 5.85545 19.2915C5.07305 18.7349 4.76951 17.6859 5.1751 16.9767C5.58069 16.2675 6.54365 16.1204 7.32605 16.677C8.10845 17.2336 8.4146 18.2799 8.00639 19.0025V18.9918ZM16.741 20.865C15.7571 21.6357 14.3127 20.7473 13.1195 21.2664C11.9105 21.7401 11.4709 23.4073 10.2411 23.5491C9.01122 23.6909 8.0692 22.3235 9.19439 19.8347C9.92707 18.1595 9.72296 16.7252 11.0758 16.1257C12.4548 15.5905 13.2843 16.776 14.9826 17.4637C17.4763 18.4539 17.7249 20.1077 16.741 20.8757V20.865Z" fill="#3772FF"/>
<path d="M117.14 20.3509C116.571 21.3453 115.712 22.1317 114.682 22.5988C113.656 23.0812 112.509 23.2262 111.399 23.0136C110.314 22.821 109.308 22.3106 108.502 21.5444L123.174 14.8249L123.001 14.0488C122.982 13.9046 122.947 13.7629 122.899 13.626C122.811 13.2995 122.699 12.9802 122.564 12.6706C122.112 11.6168 121.494 10.6466 120.732 9.79924C119.199 7.95171 117.107 6.67956 114.787 6.18389C112.45 5.63766 110.002 5.89637 107.824 6.9198C106.37 7.57891 105.071 8.54908 104.014 9.76498C102.957 10.9809 102.168 12.4142 101.698 13.9685C101.243 15.5005 101.104 17.1126 101.29 18.7025C101.511 20.5909 102.199 22.3906 103.289 23.9315C104.29 25.3897 105.612 26.5865 107.149 27.4249C108.686 28.2634 110.394 28.72 112.136 28.7578C113.877 28.7956 115.603 28.4135 117.173 27.6424C118.744 26.8714 120.114 25.733 121.175 24.3195C122.055 23.1348 122.702 21.7872 123.082 20.3509H117.14ZM107.95 13.7009C108.501 12.9772 109.221 12.406 110.043 12.0391C110.862 11.6564 111.761 11.4855 112.66 11.5414C113.543 11.5976 114.404 11.8554 115.177 12.296L106.835 16.1094C107.027 15.232 107.408 14.4093 107.95 13.7009Z" fill="#3772FF"/>
</svg>
