<svg width="14" height="13" viewBox="0 0 14 13" fill="none" xmlns="http://www.w3.org/2000/svg">
<path d="M10.5625 7.90625C10.6042 7.94792 10.6875 8.04167 10.8125 8.1875C10.9583 8.3125 11.0521 8.39583 11.0938 8.4375C11.1354 8.47917 11.2188 8.57292 11.3438 8.71875C11.4896 8.86458 11.5729 8.96875 11.5938 9.03125C11.6354 9.07292 11.7188 9.16667 11.8438 9.3125C11.9688 9.45833 12.0312 9.5625 12.0312 9.625C12.0521 9.6875 12.1042 9.80208 12.1875 9.96875C12.2917 10.1354 12.3229 10.2604 12.2812 10.3438C12.2604 10.4062 12.2708 10.5312 12.3125 10.7188C12.375 10.8854 12.375 11.0104 12.3125 11.0938C12.0833 11.9688 11.5625 12.4896 10.75 12.6562C10.6042 12.6771 10.0938 12.6354 9.21875 12.5312C8.36458 12.4271 7.64583 12.375 7.0625 12.375H6.9375C6.35417 12.375 5.625 12.4271 4.75 12.5312C3.89583 12.6354 3.39583 12.6771 3.25 12.6562C2.4375 12.4896 1.91667 11.9688 1.6875 11.0938C1.625 10.6771 1.69792 10.25 1.90625 9.8125C2.11458 9.375 2.30208 9.0625 2.46875 8.875C2.65625 8.6875 2.97917 8.36458 3.4375 7.90625C3.64583 7.67708 3.91667 7.35417 4.25 6.9375C4.60417 6.52083 4.88542 6.19792 5.09375 5.96875C5.46875 5.51042 5.85417 5.21875 6.25 5.09375C6.33333 5.05208 6.40625 5.03125 6.46875 5.03125C6.59375 5.01042 6.77083 5 7 5C7.25 5 7.42708 5.01042 7.53125 5.03125C7.59375 5.03125 7.66667 5.05208 7.75 5.09375C8.14583 5.21875 8.53125 5.51042 8.90625 5.96875C9.09375 6.19792 9.36458 6.52083 9.71875 6.9375C10.0729 7.35417 10.3542 7.67708 10.5625 7.90625ZM10.8125 5.53125C10.5 5.19792 10.3438 4.80208 10.3438 4.34375C10.3438 3.88542 10.5 3.48958 10.8125 3.15625C11.1458 2.82292 11.5417 2.65625 12 2.65625C12.4583 2.65625 12.8438 2.82292 13.1562 3.15625C13.4896 3.48958 13.6562 3.88542 13.6562 4.34375C13.6562 4.80208 13.4896 5.19792 13.1562 5.53125C12.8438 5.84375 12.4583 6 12 6C11.5417 6 11.1458 5.84375 10.8125 5.53125ZM7.8125 2.84375C7.5 2.51042 7.34375 2.11458 7.34375 1.65625C7.34375 1.19792 7.5 0.8125 7.8125 0.5C8.14583 0.166667 8.54167 0 9 0C9.45833 0 9.84375 0.166667 10.1562 0.5C10.4896 0.8125 10.6562 1.19792 10.6562 1.65625C10.6562 2.11458 10.4896 2.51042 10.1562 2.84375C9.84375 3.17708 9.45833 3.34375 9 3.34375C8.54167 3.34375 8.14583 3.17708 7.8125 2.84375ZM3.8125 2.84375C3.5 2.51042 3.34375 2.11458 3.34375 1.65625C3.34375 1.19792 3.5 0.8125 3.8125 0.5C4.14583 0.166667 4.54167 0 5 0C5.45833 0 5.84375 0.166667 6.15625 0.5C6.48958 0.8125 6.65625 1.19792 6.65625 1.65625C6.65625 2.11458 6.48958 2.51042 6.15625 2.84375C5.84375 3.17708 5.45833 3.34375 5 3.34375C4.54167 3.34375 4.14583 3.17708 3.8125 2.84375ZM0.8125 5.53125C0.5 5.19792 0.34375 4.80208 0.34375 4.34375C0.34375 3.88542 0.5 3.48958 0.8125 3.15625C1.14583 2.82292 1.54167 2.65625 2 2.65625C2.45833 2.65625 2.84375 2.82292 3.15625 3.15625C3.48958 3.48958 3.65625 3.88542 3.65625 4.34375C3.65625 4.80208 3.48958 5.19792 3.15625 5.53125C2.84375 5.84375 2.45833 6 2 6C1.54167 6 1.14583 5.84375 0.8125 5.53125Z" fill="white"/>
</svg>
