<svg width="16" height="11" viewBox="0 0 16 11" fill="none" xmlns="http://www.w3.org/2000/svg">
<path d="M6.59375 3.95508C6.98958 3.55924 7.45833 3.36133 8 3.36133C8.54167 3.36133 9.01042 3.55924 9.40625 3.95508C9.80208 4.35091 10 4.81966 10 5.36133C10 5.90299 9.80208 6.37174 9.40625 6.76758C9.01042 7.16341 8.54167 7.36133 8 7.36133C7.45833 7.36133 6.98958 7.16341 6.59375 6.76758C6.19792 6.37174 6 5.90299 6 5.36133C6 4.81966 6.19792 4.35091 6.59375 3.95508ZM5.625 7.73633C6.29167 8.38216 7.08333 8.70508 8 8.70508C8.91667 8.70508 9.69792 8.38216 10.3438 7.73633C11.0104 7.06966 11.3438 6.27799 11.3438 5.36133C11.3438 4.44466 11.0104 3.66341 10.3438 3.01758C9.69792 2.35091 8.91667 2.01758 8 2.01758C7.08333 2.01758 6.29167 2.35091 5.625 3.01758C4.97917 3.66341 4.65625 4.44466 4.65625 5.36133C4.65625 6.27799 4.97917 7.06966 5.625 7.73633ZM3.53125 1.73633C4.86458 0.819661 6.35417 0.361328 8 0.361328C9.64583 0.361328 11.1354 0.819661 12.4688 1.73633C13.8021 2.65299 14.7604 3.86133 15.3438 5.36133C14.7604 6.86133 13.8021 8.06966 12.4688 8.98633C11.1354 9.90299 9.64583 10.3613 8 10.3613C6.35417 10.3613 4.86458 9.90299 3.53125 8.98633C2.19792 8.06966 1.23958 6.86133 0.65625 5.36133C1.23958 3.86133 2.19792 2.65299 3.53125 1.73633Z" fill="#BCBCBC"/>
</svg>
