<svg width="16" height="14" viewBox="0 0 16 14" fill="none" xmlns="http://www.w3.org/2000/svg">
<path d="M7.90625 4.36133H8C8.54167 4.36133 9.01042 4.55924 9.40625 4.95508C9.80208 5.35091 10 5.81966 10 6.36133V6.48633L7.90625 4.36133ZM5.03125 4.89258C4.78125 5.39258 4.65625 5.88216 4.65625 6.36133C4.65625 7.27799 4.97917 8.06966 5.625 8.73633C6.29167 9.38216 7.08333 9.70508 8 9.70508C8.47917 9.70508 8.96875 9.58008 9.46875 9.33008L8.4375 8.29883C8.27083 8.34049 8.125 8.36133 8 8.36133C7.45833 8.36133 6.98958 8.16341 6.59375 7.76758C6.19792 7.37174 6 6.90299 6 6.36133C6 6.23633 6.02083 6.09049 6.0625 5.92383L5.03125 4.89258ZM1.34375 1.20508L2.1875 0.361328L14 12.1738L13.1562 13.0176C13.0521 12.9134 12.7188 12.5905 12.1562 12.0488C11.6146 11.5072 11.1979 11.0905 10.9062 10.7988C10.0104 11.1738 9.04167 11.3613 8 11.3613C6.35417 11.3613 4.86458 10.903 3.53125 9.98633C2.19792 9.06966 1.23958 7.86133 0.65625 6.36133C0.885417 5.81966 1.23958 5.22591 1.71875 4.58008C2.21875 3.91341 2.69792 3.40299 3.15625 3.04883C2.90625 2.79883 2.55208 2.44466 2.09375 1.98633C1.65625 1.52799 1.40625 1.26758 1.34375 1.20508ZM8 3.01758C7.58333 3.01758 7.17708 3.10091 6.78125 3.26758L5.34375 1.83008C6.15625 1.51758 7.04167 1.36133 8 1.36133C9.64583 1.36133 11.125 1.81966 12.4375 2.73633C13.7708 3.65299 14.7292 4.86133 15.3125 6.36133C14.8125 7.59049 14.0521 8.64258 13.0312 9.51758L11.0938 7.58008C11.2604 7.18424 11.3438 6.77799 11.3438 6.36133C11.3438 5.44466 11.0104 4.66341 10.3438 4.01758C9.69792 3.35091 8.91667 3.01758 8 3.01758Z" fill="#BCBCBC"/>
</svg>
